<?xml version="1.0" standalone="no"?>
<!DOCTYPE svg PUBLIC "-//W3C//DTD SVG 20010904//EN"
 "http://www.w3.org/TR/2001/REC-SVG-20010904/DTD/svg10.dtd">
<svg version="1.0" xmlns="http://www.w3.org/2000/svg"
 width="1232.000000pt" height="1280.000000pt" viewBox="0 0 1232.000000 1280.000000"
 preserveAspectRatio="xMidYMid meet">
<metadata>
Created by potrace 1.15, written by Peter Selinger 2001-2017
</metadata>
<g transform="translate(0.000000,1280.000000) scale(0.100000,-0.100000)"
fill="#000000" stroke="none">
<path d="M11240 12695 c-114 -130 -224 -233 -289 -274 l-49 -30 -12 30 c-7 16
-28 43 -47 59 -79 69 -213 11 -213 -93 0 -60 31 -102 129 -174 2 -2 -4 -12
-14 -23 -27 -30 -62 -26 -79 9 -51 98 -157 107 -229 21 -54 -64 -43 -130 33
-191 42 -34 50 -58 24 -79 -13 -11 -20 -8 -45 24 -82 98 -202 99 -249 2 -25
-53 -25 -72 0 -113 18 -30 85 -86 113 -96 7 -2 -4 -21 -26 -47 -67 -74 -97
-169 -97 -312 0 -53 5 -119 12 -147 l11 -50 -299 -313 c-1212 -1270 -2422
-2513 -3153 -3242 -293 -293 -321 -318 -338 -305 -10 8 -79 66 -153 129 -393
335 -564 431 -865 486 -140 26 -454 26 -578 1 -498 -101 -892 -442 -1157
-1002 -74 -156 -110 -255 -160 -444 -23 -85 -53 -182 -67 -215 -49 -117 -132
-219 -228 -281 -97 -63 -174 -79 -470 -100 -258 -18 -353 -29 -520 -60 -635
-119 -1209 -397 -1618 -785 -293 -279 -500 -633 -571 -980 -41 -203 -46 -540
-11 -800 59 -447 283 -953 651 -1467 589 -824 1354 -1424 2147 -1684 501 -165
997 -192 1426 -78 576 153 1037 552 1340 1160 213 428 320 871 341 1419 12
299 24 439 46 530 40 162 137 298 261 363 38 19 147 59 243 88 367 110 679
284 918 514 291 279 424 586 425 980 0 428 -144 801 -543 1400 -47 72 -89 135
-93 141 -4 7 78 104 196 231 283 306 558 607 952 1043 1085 1200 1390 1529
2029 2189 470 484 469 484 515 476 61 -11 167 -6 217 11 61 20 166 89 219 143
41 43 55 50 55 27 0 -8 19 -35 43 -61 76 -83 155 -89 205 -15 27 40 28 72 3
126 -18 39 -66 84 -90 84 -6 0 -16 11 -21 25 -27 71 49 106 89 41 29 -46 94
-104 127 -112 36 -9 89 18 115 58 31 50 21 109 -26 158 -21 21 -51 44 -66 51
-36 15 -39 56 -6 85 53 47 56 48 66 21 16 -41 79 -105 117 -117 47 -16 73 -8
114 35 29 30 35 44 35 78 0 55 -32 100 -90 123 -25 11 -45 26 -45 34 0 39 71
128 214 270 86 85 159 163 162 172 9 29 -36 95 -96 143 -79 61 -96 100 -81
181 31 169 1 308 -86 405 -67 74 -133 95 -348 109 -223 15 -276 30 -341 92
l-31 29 -93 -106z m-445 -295 c9 -10 20 -40 23 -66 l5 -46 -31 16 c-32 17 -72
61 -72 80 0 36 48 46 75 16z m-208 -242 c14 -28 19 -95 8 -106 -6 -7 -105 70
-105 82 0 24 32 56 55 56 17 0 29 -10 42 -32z m737 6 c22 -21 20 -86 -2 -114
-17 -21 -19 -21 -55 -7 -50 21 -67 59 -41 88 14 17 61 44 81 49 1 0 9 -7 17
-16z m-960 -233 c48 -42 31 -94 -23 -71 -16 6 -38 22 -50 34 -19 20 -20 24 -5
44 17 25 44 23 78 -7z m747 -10 c37 -37 37 -70 1 -104 -37 -35 -63 -34 -101 4
-39 38 -39 58 -2 98 36 39 64 39 102 2z m573 -107 c18 -46 -4 -113 -44 -134
-14 -7 -26 -2 -54 23 -20 19 -36 41 -36 49 0 9 16 30 35 47 39 34 89 42 99 15z
m-797 -130 c43 -27 42 -91 -3 -120 -24 -16 -27 -16 -52 3 -15 11 -37 35 -50
53 l-22 34 26 28 c29 29 56 30 101 2z m587 -93 l38 -39 -37 -40 c-51 -57 -68
-60 -104 -20 -17 18 -31 39 -31 47 0 15 72 91 87 91 5 0 26 -18 47 -39z m-807
-127 c26 -16 41 -60 25 -76 -5 -5 -22 -8 -38 -6 -34 4 -69 56 -59 88 7 23 30
21 72 -6z m579 -117 c39 -40 39 -64 1 -102 -19 -19 -40 -35 -46 -35 -6 0 -25
13 -43 29 -18 15 -39 30 -46 32 -8 3 0 22 24 57 32 48 39 53 62 47 15 -3 37
-16 48 -28z m728 -76 c21 -21 16 -48 -10 -58 -20 -7 -74 47 -74 73 0 22 57 11
84 -15z m-928 -163 c19 -37 12 -58 -20 -58 -48 0 -76 20 -76 55 0 17 5 36 11
42 18 18 67 -5 85 -39z m707 -76 c18 -16 22 -39 8 -61 -7 -10 -13 -11 -30 -1
-26 13 -83 99 -75 112 5 8 62 -21 97 -50z m-225 -215 c25 -23 29 -62 8 -70
-17 -7 -61 25 -77 55 -8 16 -7 22 8 33 19 14 27 12 61 -18z"/>
</g>
</svg>
